# xmcd
#
# Track frame offsets:
#	150
#	11289
#	29328
#	48983
#	61517
#	75167
#	87797
#	105475
#	119660
#	136229
#	150398
#	162798
#	180582
#	199877
#	215263
#
# Disc length: 3015 seconds
#
# Revision: 0
# Processed by: cddbd v1.5.2PL0 Copyright (c) Steve Scherf et al.
# Submitted via: dBpowerAMP V4.0
#
DISCID=aa0bc50f
DTITLE=Milburn Mountain Boys - Bootleg John
DYEAR=2004
DGENRE=Bluegrass
TTITLE0=Dixieland For Me
TTITLE1=Walls Of Time 
TTITLE2=Lonsome Old Home
TTITLE3=Salt Creek 
TTITLE4=Sweethearts In Heaven 
TTITLE5=God Gave You To Me
TTITLE6=Wedding Bells
TTITLE7=Rawhide
TTITLE8=Tennesse 1949
TTITLE9=Dreaming Of A Little Cabin 
TTITLE10=Kentucky Girl
TTITLE11=Southern Flavour
TTITLE12=Take Me To The Mountain 
TTITLE13=Dusty Miller
TTITLE14=Bootleg John
EXTD=
EXTT0=
EXTT1=
EXTT2=
EXTT3=
EXTT4=
EXTT5=
EXTT6=
EXTT7=
EXTT8=
EXTT9=
EXTT10=
EXTT11=
EXTT12=
EXTT13=
EXTT14=
PLAYORDER=
